<?xml version="1.0" encoding="UTF-8" standalone="no"?>
<svg
   xmlns:dc="http://purl.org/dc/elements/1.1/"
   xmlns:cc="http://creativecommons.org/ns#"
   xmlns:rdf="http://www.w3.org/1999/02/22-rdf-syntax-ns#"
   xmlns:svg="http://www.w3.org/2000/svg"
   xmlns="http://www.w3.org/2000/svg"
   xmlns:xlink="http://www.w3.org/1999/xlink"
   xmlns:sodipodi="http://sodipodi.sourceforge.net/DTD/sodipodi-0.dtd"
   xmlns:inkscape="http://www.inkscape.org/namespaces/inkscape"
   inkscape:version="1.0 (4035a4fb49, 2020-05-01)"
   sodipodi:docname="aavewatch.svg"
   id="Group_15840"
   data-name="Group 15840"
   viewBox="0 0 49.999999 50"
   version="1.1"
   width="50"
   height="50"
   inkscape:export-filename="/home/lukass/Documents/aavewatch2/public/aavewatch-180x180.png"
   inkscape:export-xdpi="345.60001"
   inkscape:export-ydpi="345.60001">
  <sodipodi:namedview
     inkscape:current-layer="Group_15840"
     inkscape:window-maximized="1"
     inkscape:window-y="28"
     inkscape:window-x="0"
     inkscape:cy="27.076466"
     inkscape:cx="16.058675"
     inkscape:zoom="11.313708"
     showgrid="false"
     id="namedview75"
     inkscape:window-height="1024"
     inkscape:window-width="1920"
     inkscape:pageshadow="2"
     inkscape:pageopacity="0"
     guidetolerance="10"
     gridtolerance="10"
     objecttolerance="10"
     borderopacity="1"
     bordercolor="#666666"
     pagecolor="#ffffff"
     inkscape:document-rotation="0"
     showguides="true"
     inkscape:guide-bbox="true">
    <sodipodi:guide
       position="-0.14311317,-1.5738694"
       orientation="0,-1"
       id="guide1500" />
  </sodipodi:namedview>
  <metadata
     id="metadata68">
    <rdf:RDF>
      <cc:Work
         rdf:about="">
        <dc:format>image/svg+xml</dc:format>
        <dc:type
           rdf:resource="http://purl.org/dc/dcmitype/StillImage" />
        <dc:title />
      </cc:Work>
    </rdf:RDF>
  </metadata>
  <defs
     id="defs47">
    <linearGradient
       gradientUnits="objectBoundingBox"
       y2="0.22400001"
       y1="0.95499998"
       x2="1.033"
       x1="-0.033"
       id="linearGradient354">
      <stop
         id="stop350"
         stop-color="#2ebac6"
         offset="0" />
      <stop
         offset="0.61048555"
         stop-color="#2ebac6"
         id="stop356"
         style="stop-color:#8179ad;stop-opacity:1;" />
      <stop
         id="stop352"
         stop-color="#b6509e"
         offset="1" />
    </linearGradient>
    <linearGradient
       id="linearGradient278">
      <stop
         style="stop-color:#e9afaf;stop-opacity:1;"
         offset="0"
         id="stop274" />
      <stop
         style="stop-color:#e9afaf;stop-opacity:0;"
         offset="1"
         id="stop276" />
    </linearGradient>
    <linearGradient
       id="linear-gradient"
       x1="174.97147"
       x2="219.08993"
       y1="121.04081"
       y2="90.786975"
       gradientUnits="userSpaceOnUse"
       gradientTransform="scale(0.82753364,1.2084101)">
      <stop
         offset="0"
         stop-color="#2ebac6"
         id="stop40" />
      <stop
         offset="1"
         stop-color="#b6509e"
         id="stop42" />
    </linearGradient>
    <style
       id="style45">
      .cls-2{fill:none}.cls-5{opacity:.21}.cls-6{opacity:.1}.cls-7{stroke:#fff;stroke-linecap:round;stroke-linejoin:round;stroke-miterlimit:10;opacity:.37}
    </style>
    <linearGradient
       xlink:href="#linearGradient354"
       id="linearGradient280"
       x1="6.7391834"
       y1="15.998291"
       x2="14.739183"
       y2="15.998291"
       gradientUnits="userSpaceOnUse"
       spreadMethod="pad"
       gradientTransform="translate(7.9395848,0.140625)" />
    <linearGradient
       xlink:href="#linearGradient278"
       id="linearGradient342"
       x1="11.755651"
       y1="18.384777"
       x2="14.274718"
       y2="18.517359"
       gradientUnits="userSpaceOnUse"
       gradientTransform="translate(7.8614598)" />
  </defs>
  <g
     id="Group_13465"
     data-name="Group 13465"
     transform="translate(7.8614598)">
    <path
       id="Path_7142"
       fill="url(#linear-gradient)"
       d="m 180.169,115.261 a 17.126,17.126 0 0 0 -34.244,0 v 31.353 a 1.9035,1.9035 0 1 0 3.807,0 v -5.533 a 1.9035,1.9035 0 0 1 3.807,0 v 2.619 a 1.9035,1.9035 0 1 0 3.807,0 v -2.623 a 1.9,1.9 0 0 1 1.9,-1.9 1.9,1.9 0 0 1 1.9,1.9 v 0.717 a 1.9035,1.9035 0 0 0 3.807,0 v -0.717 a 1.9035,1.9035 0 0 1 3.807,0 v 2.623 a 1.9035,1.9035 0 0 0 3.807,0 v -2.623 a 1.9,1.9 0 0 1 1.9,-1.9 1.9,1.9 0 0 1 1.9,1.9 v 5.533 a 1.9035,1.9035 0 0 0 3.807,0 v -31.218 a 1.355,1.355 0 0 0 -0.005,-0.131 z M 156.733,118 a 3.527,3.527 0 1 1 3.047,-3.494 3.294,3.294 0 0 1 -3.047,3.494 z m 6.451,4.931 c -1.527,0 -2.766,-0.91 -2.766,-2.033 0,-1.123 1.239,-0.445 2.766,-0.445 1.527,0 2.766,-0.678 2.766,0.445 0,1.123 -1.237,2.035 -2.766,2.035 z m 6.18,-4.931 a 3.527,3.527 0 1 1 3.047,-3.494 3.294,3.294 0 0 1 -3.047,3.494 z"
       data-name="Path 7142"
       transform="translate(-145.92,-98.518)"
       style="fill:url(#linear-gradient)" />
    <g
       id="Group_13464"
       data-name="Group 13464"
       transform="translate(7.766,12.496)">
      <ellipse
         id="Ellipse_598"
         cx="3.0469999"
         cy="3.494"
         class="cls-2"
         data-name="Ellipse 598"
         rx="3.0469999"
         ry="3.494" />
      <path
         id="Path_7143"
         d="m 237.276,231.464 c -1.527,0 -2.766,-0.678 -2.766,0.445 0,1.123 1.239,2.033 2.766,2.033 1.527,0 2.766,-0.91 2.766,-2.033 0,-1.123 -1.242,-0.445 -2.766,-0.445 z"
         class="cls-2"
         data-name="Path 7143"
         transform="translate(-227.777,-222.023)" />
      <ellipse
         id="Ellipse_599"
         cx="3.0469999"
         cy="3.494"
         class="cls-2"
         data-name="Ellipse 599"
         rx="3.0469999"
         ry="3.494"
         transform="translate(12.631)" />
    </g>
    <path
       id="Path_7146"
       fill="#ffffff"
       d="m 147.49,112.633 c 0,0 3.312,-10.522 17.058,-10.418 17.058,0.206 16.939,19.315 16.939,19.315 0,0 1.538,-13.394 -6.461,-19.336 -7.999,-5.942 -14.768,-3.306 -17.873,-2.141 -3.105,1.165 -8.995,6.107 -9.663,12.58 z"
       data-name="Path 7146"
       opacity="0.06"
       transform="translate(-147.233,-98.454)" />
    <path
       id="Path_7147"
       fill="#ffffff"
       d="m 160.8,106.8 c 0,0 5.561,-6.052 13.274,-6.132 7.713,-0.08 13.114,2.447 15.654,7.649 a 33.736,33.736 0 0 1 2.892,11.255 c 0,0 1.538,-11.428 -6.461,-17.369 -7.999,-5.941 -14.768,-3.306 -17.873,-2.141 -3.105,1.165 -5.301,3.738 -7.486,6.738 z"
       data-name="Path 7147"
       opacity="0.15"
       transform="translate(-158.365,-98.466)" />
    <path
       id="Path_7148"
       d="m 193.354,177.041 c 0,0 0.214,-3.736 3.047,-3.741 2.833,-0.005 3.047,3.741 3.047,3.741 0,0 -0.591,-3.494 -3.047,-3.494 -1.755,0 -3.126,2.705 -3.047,3.494 z"
       class="cls-5"
       data-name="Path 7148"
       transform="translate(-185.588,-161.051)" />
    <path
       id="Path_7149"
       d="m 270.543,177.041 c 0,0 0.214,-3.736 3.047,-3.741 2.833,-0.005 3.047,3.741 3.047,3.741 0,0 -0.591,-3.494 -3.047,-3.494 -1.756,0 -3.127,2.705 -3.047,3.494 z"
       class="cls-5"
       data-name="Path 7149"
       transform="translate(-250.145,-161.051)" />
    <path
       id="Path_7150"
       d="m 194.385,170.53 a 4.02,4.02 0 0 0 -3.445,4.195 3.7,3.7 0 0 0 3.445,3.867 3.584,3.584 0 0 0 3.281,-3.867 c 0,-2.678 -1.931,-4.195 -3.281,-4.195 z m 0.046,7.631 c -1.912,0.056 -3.046,-2.08 -3.046,-3.636 a 3.07,3.07 0 0 1 3.046,-3.145 c 1.9,0 2.718,1.589 2.718,3.145 0,1.556 -0.807,3.581 -2.718,3.636 z"
       class="cls-6"
       data-name="Path 7150"
       transform="translate(-183.572,-158.734)" />
    <path
       id="Path_7151"
       d="m 272.245,170.53 a 4.02,4.02 0 0 0 -3.445,4.195 3.7,3.7 0 0 0 3.445,3.867 3.584,3.584 0 0 0 3.281,-3.867 c 0,-2.678 -1.926,-4.195 -3.281,-4.195 z m 0.046,7.631 c -1.912,0.056 -3.046,-2.08 -3.046,-3.636 a 3.07,3.07 0 0 1 3.046,-3.145 c 1.9,0 2.718,1.589 2.718,3.145 0,1.556 -0.809,3.581 -2.718,3.636 z"
       class="cls-6"
       data-name="Path 7151"
       transform="translate(-248.69,-158.734)" />
    <path
       id="Path_7152"
       d="m 234.86,237.73 a 2.612,2.612 0 0 0 2.746,1.623 2.727,2.727 0 0 0 2.646,-1.486 2.519,2.519 0 0 1 -2.632,2.232 2.667,2.667 0 0 1 -2.76,-2.369 z"
       class="cls-6"
       data-name="Path 7152"
       transform="translate(-220.304,-214.936)" />
    <path
       id="Line_105"
       d="M 0,0 V 8.209"
       class="cls-7"
       data-name="Line 105"
       transform="translate(32.705,27.79)" />
    <path
       id="Line_106"
       d="M 0,0 V 1.661"
       class="cls-7"
       data-name="Line 106"
       transform="translate(32.705,23.541)" />
    <path
       id="Line_107"
       d="M 0,0 V 4.936"
       class="cls-7"
       data-name="Line 107"
       transform="translate(1.587,21.456)" />
    <path
       style="font-variation-settings:normal;opacity:1;vector-effect:none;fill:#6c5d53;fill-opacity:1;stroke:#000000;stroke-width:1;stroke-linecap:butt;stroke-linejoin:miter;stroke-miterlimit:4;stroke-dasharray:none;stroke-dashoffset:0;stroke-opacity:1;stop-color:#000000;stop-opacity:1"
       d="M 7.9549513,13.037281 7.866563,18.760427"
       id="path4313" />
    <path
       style="fill:#6c5d53"
       d="m 7.9549513,13.037281 -0.088388,5.723146 5.8778247,0.243072 v 0 L 7.866563,18.760427"
       id="path4315" />
    <path
       style="font-variation-settings:normal;opacity:1;vector-effect:none;fill:#483e37;fill-opacity:1;stroke:#000000;stroke-width:1;stroke-linecap:butt;stroke-linejoin:miter;stroke-miterlimit:4;stroke-dasharray:none;stroke-dashoffset:0;stroke-opacity:1;stop-color:#000000;stop-opacity:1"
       d="M 7,18.46875 7.53125,18.3125"
       id="path4347" />
    <path
       style="font-variation-settings:normal;opacity:1;vector-effect:none;fill:#483e37;fill-opacity:1;stroke:#000000;stroke-width:1;stroke-linecap:butt;stroke-linejoin:miter;stroke-miterlimit:4;stroke-dasharray:none;stroke-dashoffset:0;stroke-opacity:1;stop-color:#000000;stop-opacity:1"
       d="m 13.28125,18.8125 0.463138,0.190999"
       id="path4349" />
    <path
       style="font-variation-settings:normal;opacity:1;vector-effect:none;fill:#483e37;fill-opacity:1;stroke:#000000;stroke-width:1;stroke-linecap:butt;stroke-linejoin:miter;stroke-miterlimit:4;stroke-dasharray:none;stroke-dashoffset:0;stroke-opacity:1;stop-color:#000000;stop-opacity:1"
       d="M 8.6875,19.46875 7.53125,18.3125"
       id="path4351" />
    <path
       style="font-variation-settings:normal;opacity:1;vector-effect:none;fill:#483e37;fill-opacity:1;stroke:#000000;stroke-width:1;stroke-linecap:butt;stroke-linejoin:miter;stroke-miterlimit:4;stroke-dasharray:none;stroke-dashoffset:0;stroke-opacity:1;stop-color:#000000;stop-opacity:1"
       d="M 14.8125,18.5 H 13.75"
       id="path4357" />
  </g>
  <g
     id="layer1" />
  <ellipse
     style="fill:#483e37"
     id="path107"
     cx="18.600643"
     cy="15.954097"
     rx="5.524272"
     ry="5.4800777" />
  <path
     style="fill:#f4d7d7"
     id="path141"
     d="m 20.942665,15.576958 a 2.80633,3.2924659 0 0 1 1.26e-4,0.07908" />
  <path
     style="fill:#f4d7d7"
     id="path143"
     d="m 21.031068,15.311792 a 2.6516504,3.2924659 0 0 1 1.19e-4,0.07908" />
  <path
     style="fill:#e9afaf"
     id="path148"
     d="m 20.324043,16.701763 a 1.8119612,3.4471455 0 0 1 8.1e-5,0.08279" />
  <path
     style="fill:#e9afaf"
     id="path150"
     d="m 23.991927,16.55753 a 4.2205434,4.2868347 0 0 1 1.89e-4,0.102961" />
  <circle
     style="fill:url(#linearGradient280)"
     id="path156"
     cx="18.678768"
     cy="16.138916"
     r="4" />
  <path
     style="fill:#483e37"
     d="M 13.095835,16.359375 8.1270848,17.78125"
     id="path222" />
  <path
     style="fill:#483e37"
     d="M 13.095835,16.359375 8.3614598,17.5"
     id="path228" />
  <path
     style="fill:#483e37"
     d="M 13.564585,17.5625 8.8458348,18.75"
     id="path230" />
  <path
     style="fill:#483e37"
     d="M 13.17396,16.609375 8.4552098,17.78125"
     id="path234" />
  <path
     style="fill:#483e37"
     d="m 15.816411,13.037281 0.220971,6.010408"
     id="path290" />
  <path
     style="fill:#483e37"
     d="m 20.191635,20.771262 0.132582,0.08839"
     id="path294" />
  <path
     style="fill:#483e37"
     d="m 15.816411,13.037281 0.220971,6.010408"
     id="path298" />
  <path
     style="fill:url(#linearGradient342);fill-opacity:1"
     d="m 15.816411,13.037281 0.220971,6.010408"
     id="path314" />
  <text
     xml:space="preserve"
     style="font-size:12px;line-height:0.55;font-family:sans-serif;fill:#483e37"
     x="22.705067"
     y="20.461903"
     id="text4292"><tspan
       id="tspan4290"
       x="22.705067"
       y="20.461903"
       style="font-style:normal;font-variant:normal;font-weight:normal;font-stretch:normal;font-family:'Microsoft Sans Serif';-inkscape-font-specification:'Microsoft Sans Serif';text-align:end;text-anchor:end" /></text>
  <path
     data-name="Path 7151"
     class="cls-6"
     d="m 18.412532,11.769089 c -2.187403,0.311637 -3.773683,2.235569 -3.655228,4.433271 -0.101368,2.126049 1.523188,3.942346 3.655228,4.08664 2.094896,-0.16989 3.654117,-2.000277 3.481219,-4.08664 0,-2.830107 -2.043532,-4.433271 -3.481219,-4.433271 z m 0.04881,8.064431 C 16.432661,19.8927 15.22946,17.635378 15.22946,15.991 c 0.193459,-1.82081 2.088936,-3.332865 3.231879,-3.323632 2.015945,0 2.883863,1.679254 2.883863,3.323632 0,1.644378 -0.858369,3.784395 -2.883863,3.84252 z"
     id="Path_7151-4"
     style="opacity:0.1;stroke-width:1.05891" />
  <path
     style="font-variation-settings:normal;opacity:1;vector-effect:none;fill:#483e37;fill-opacity:1;stroke:#473d37;stroke-width:0.116982;stroke-linecap:butt;stroke-linejoin:miter;stroke-miterlimit:4;stroke-dasharray:none;stroke-dashoffset:0;stroke-opacity:1;stop-color:#000000;stop-opacity:1"
     d="m 15.374983,13.030459 0.003,6.024052"
     id="path4317" />
  <path
     id="path4317-2"
     d="m 22.67094,18.569698 c 2.012692,-0.07066 -0.16603,0.06305 -7.80948,-0.100948"
     style="font-variation-settings:normal;opacity:1;vector-effect:none;fill:#483e37;fill-opacity:1;stroke:#473d37;stroke-width:0.116982;stroke-linecap:butt;stroke-linejoin:miter;stroke-miterlimit:4;stroke-dasharray:none;stroke-dashoffset:0;stroke-opacity:1;stop-color:#000000;stop-opacity:1" />
  <path
     style="font-variation-settings:normal;opacity:1;vector-effect:none;fill:#483e37;fill-opacity:1;stroke:#473d37;stroke-width:0.111727;stroke-linecap:butt;stroke-linejoin:miter;stroke-miterlimit:4;stroke-dasharray:none;stroke-dashoffset:0;stroke-opacity:1;stop-color:#000000;stop-opacity:1"
     d="m 15.17396,18.756349 1.392604,-1.75462"
     id="path4378" />
  <path
     style="font-variation-settings:normal;opacity:1;vector-effect:none;fill:#483e37;fill-opacity:1;stroke:#473d37;stroke-width:0.0879279;stroke-linecap:butt;stroke-linejoin:miter;stroke-miterlimit:4;stroke-dasharray:none;stroke-dashoffset:0;stroke-opacity:1;stop-color:#000000;stop-opacity:1"
     d="M 17.790781,17.981065 17.337477,17.618197 16.876668,17.249793 16.566564,17.001729"
     id="path4380" />
  <path
     id="path4380-9"
     d="m 18.931795,14.500806 -1.141014,3.480259"
     style="font-variation-settings:normal;opacity:1;vector-effect:none;fill:#483e37;fill-opacity:1;stroke:#473d37;stroke-width:0.100965;stroke-linecap:butt;stroke-linejoin:miter;stroke-miterlimit:4;stroke-dasharray:none;stroke-dashoffset:0;stroke-opacity:1;stop-color:#000000;stop-opacity:1" />
  <path
     id="path4380-1"
     d="M 20.092678,15.554445 19.66284,15.164065 19.225857,14.767692 18.931795,14.500806"
     style="font-variation-settings:normal;opacity:1;vector-effect:none;fill:#483e37;fill-opacity:1;stroke:#473d37;stroke-width:0.0879279;stroke-linecap:butt;stroke-linejoin:miter;stroke-miterlimit:4;stroke-dasharray:none;stroke-dashoffset:0;stroke-opacity:1;stop-color:#000000;stop-opacity:1" />
  <path
     style="font-variation-settings:normal;opacity:1;vector-effect:none;fill:#483e37;fill-opacity:1;stroke:#473d37;stroke-width:0.0819675;stroke-linecap:butt;stroke-linejoin:miter;stroke-miterlimit:4;stroke-dasharray:none;stroke-dashoffset:0;stroke-opacity:1;stop-color:#000000;stop-opacity:1"
     d="m 21.002342,12.677293 -0.909664,2.877152"
     id="path4380-9-8" />
  <ellipse
     transform="matrix(0.91523106,-0.4029294,0.35281865,0.93569172,0,0)"
     ry="0.70158613"
     rx="3.2968676"
     cy="22.150379"
     cx="3.4821289"
     id="path107-6"
     style="fill:#483e37;stroke-width:0.276414" />
</svg>
